<svg width="46" height="46" viewBox="0 0 46 46" fill="none" xmlns="http://www.w3.org/2000/svg">
<rect width="46" height="46" rx="10" fill="#27187F"/>
<path d="M13.1292 32.8708L8.33749 30.2354C7.9861 30.0438 7.78677 29.7646 7.73949 29.3978C7.69222 29.0311 7.79571 28.7193 8.04999 28.4625L8.62499 27.8875C8.75277 27.7597 8.90483 27.6716 9.08116 27.623C9.25749 27.5745 9.42488 27.5668 9.58333 27.6L13.8 28.175L21.275 20.7L8.24166 13.6083C7.76249 13.3528 7.4833 12.9535 7.40408 12.4104C7.32485 11.8674 7.47627 11.4042 7.85833 11.0208L8.33749 10.5417C8.5611 10.3181 8.80899 10.1743 9.08116 10.1104C9.35333 10.0465 9.63252 10.0465 9.91874 10.1104L27.3125 14.5667L34.8354 7.1396C35.3785 6.59654 36.0576 6.32501 36.8728 6.32501C37.688 6.32501 38.3665 6.59654 38.9083 7.1396C39.4514 7.68265 39.7229 8.36179 39.7229 9.17701C39.7229 9.99223 39.4514 10.6707 38.9083 11.2125L31.4333 18.6875L35.8896 35.9854C35.9535 36.3049 35.9452 36.6167 35.8647 36.9208C35.7842 37.2249 35.6327 37.4881 35.4104 37.7104L35.1708 37.95C34.7236 38.3972 34.2042 38.5729 33.6126 38.4771C33.021 38.3813 32.582 38.0618 32.2958 37.5188L25.3 24.725L17.825 32.2L18.4 36.3208C18.4319 36.5445 18.416 36.7521 18.3521 36.9438C18.2882 37.1354 18.1764 37.3111 18.0167 37.4708L17.7771 37.7104C17.4576 38.0299 17.0743 38.1653 16.6271 38.1168C16.1799 38.0682 15.8444 37.8369 15.6208 37.4229L13.1292 32.8708Z" fill="white"/>
</svg>
